<svg xmlns="http://www.w3.org/2000/svg" width="240" height="400" viewBox="0 0 240 400"><rect width="100%" height="100%" fill="#DDDDDD"/><path fill="#999999" d="m61.02 192.24-.91 1.71q-.16.28-.34.41-.19.13-.46.13-.28 0-.61-.21-.33-.21-.79-.47-.46-.25-1.07-.46-.62-.21-1.45-.21-.76 0-1.33.18-.56.18-.95.51-.38.32-.57.77-.19.46-.19 1 0 .69.38 1.14.39.46 1.02.79.64.32 1.45.58.81.25 1.66.54.85.29 1.66.68.81.38 1.44.97.64.59 1.02 1.44.39.85.39 2.06 0 1.33-.46 2.48-.45 1.16-1.32 2.01-.87.86-2.13 1.35-1.25.5-2.87.5-.93 0-1.84-.19-.9-.18-1.73-.52-.83-.33-1.56-.81-.73-.47-1.3-1.05l1.07-1.74q.13-.19.35-.32.22-.13.46-.13.34 0 .73.28.39.28.93.61.54.34 1.26.62.72.28 1.74.28 1.55 0 2.4-.74.85-.74.85-2.11 0-.77-.38-1.26-.39-.48-1.02-.81-.64-.34-1.45-.56-.81-.23-1.64-.5-.84-.27-1.65-.65-.81-.38-1.45-.99-.63-.61-1.02-1.52-.38-.91-.38-2.24 0-1.07.42-2.08.43-1.02 1.24-1.8t2-1.25q1.19-.48 2.73-.48 1.72 0 3.18.54 1.46.54 2.49 1.52Zm3.09 3.83h3.34v13.85h-3.34v-13.85Zm3.8-4.04q0 .43-.17.81-.18.38-.47.66-.29.29-.68.46-.39.17-.84.17-.43 0-.81-.17-.39-.17-.67-.46-.28-.28-.45-.66-.17-.38-.17-.81 0-.44.17-.83.17-.4.45-.68t.67-.45q.38-.17.81-.17.45 0 .84.17.39.17.68.45.29.28.47.68.17.39.17.83Zm11.64 13.79v-6.21q-.57-.69-1.23-.98-.67-.28-1.44-.28-.76 0-1.37.28-.6.29-1.04.86-.43.57-.66 1.46-.23.88-.23 2.09t.2 2.05q.2.85.56 1.38.36.53.89.77t1.18.24q1.03 0 1.76-.44.73-.43 1.38-1.22Zm0-15.96h3.34v20.06h-2.04q-.66 0-.84-.61l-.28-1.33q-.84.95-1.93 1.55-1.08.59-2.53.59-1.13 0-2.08-.47-.94-.47-1.62-1.37-.69-.9-1.06-2.22-.37-1.32-.37-3.02 0-1.54.42-2.87.42-1.32 1.2-2.29t1.88-1.52q1.09-.55 2.45-.55 1.17 0 1.99.37.82.36 1.47.98v-7.3Zm9.26 11.54h6.29q0-.65-.18-1.22t-.55-1.01q-.36-.43-.92-.68-.56-.25-1.3-.25-1.45 0-2.28.83-.83.82-1.06 2.33Zm8.51 2.01h-8.58q.09 1.07.38 1.85.3.77.79 1.28.48.5 1.15.75.67.25 1.48.25.81 0 1.39-.18.59-.19 1.03-.42.44-.23.77-.42.33-.19.64-.19.42 0 .62.31l.96 1.21q-.55.65-1.24 1.09-.69.44-1.44.7-.75.27-1.52.37-.78.11-1.51.11-1.44 0-2.69-.48-1.24-.48-2.16-1.41-.91-.94-1.44-2.33-.53-1.38-.53-3.2 0-1.42.46-2.67t1.32-2.17q.86-.93 2.09-1.47 1.24-.54 2.79-.54 1.31 0 2.42.42 1.1.42 1.9 1.22.8.81 1.25 1.97.45 1.17.45 2.67 0 .76-.16 1.02t-.62.26Zm14 3.68h3.67q1.01 0 1.7-.25.69-.24 1.1-.65.41-.4.59-.94.19-.54.19-1.15 0-.63-.21-1.14-.2-.51-.63-.86-.43-.36-1.12-.55-.68-.19-1.64-.19h-3.65v5.73Zm3.09-13.88h-3.09v5.64h2.88q1.87 0 2.82-.67.95-.68.95-2.15 0-1.53-.86-2.18-.87-.64-2.7-.64Zm-6.73-2.81h6.73q1.91 0 3.28.36 1.36.37 2.23 1.04.87.68 1.28 1.64.4.95.4 2.16 0 .69-.2 1.31-.2.63-.63 1.18-.42.54-1.08.99-.65.45-1.56.76 4.03.9 4.03 4.34 0 1.24-.48 2.3-.47 1.05-1.37 1.81-.91.77-2.23 1.2-1.32.43-3.02.43h-7.38V190.4Zm24.57 15.94v-2.33q-1.44.06-2.43.25-.98.18-1.58.46-.59.29-.85.66-.25.38-.25.83 0 .88.52 1.25.52.38 1.35.38 1.03 0 1.78-.37t1.46-1.13Zm-7.04-7.27-.6-1.07q2.39-2.19 5.75-2.19 1.22 0 2.18.4.96.4 1.62 1.11.66.71 1 1.69.35.99.35 2.16v8.75H134q-.48 0-.73-.14-.26-.14-.41-.58l-.3-.99q-.52.47-1.02.83-.5.35-1.04.6-.54.24-1.15.37-.62.13-1.36.13-.88 0-1.62-.24-.74-.24-1.28-.71t-.84-1.17q-.3-.71-.3-1.64 0-.52.18-1.04.17-.52.57-1 .4-.47 1.03-.89.64-.41 1.56-.73.93-.31 2.16-.5 1.22-.2 2.8-.24v-.81q0-1.39-.59-2.06-.59-.66-1.71-.66-.81 0-1.35.18-.53.19-.94.43-.4.24-.73.42-.33.19-.74.19-.35 0-.59-.18t-.39-.42Zm16.32-2.39.23 1.09q.42-.42.88-.78.47-.35.99-.6t1.11-.4q.6-.14 1.3-.14 1.13 0 2.01.39.88.38 1.46 1.08.59.69.9 1.66.3.96.3 2.12v8.82h-3.34v-8.82q0-1.26-.58-1.96-.58-.69-1.76-.69-.87 0-1.62.39-.76.39-1.44 1.06v10.02h-3.33v-13.85h2.04q.65 0 .85.61Zm15.23 0 .23 1.09q.41-.42.88-.78.47-.35.99-.6t1.11-.4q.59-.14 1.3-.14 1.13 0 2.01.39.87.38 1.46 1.08.59.69.89 1.66.31.96.31 2.12v8.82h-3.34v-8.82q0-1.26-.58-1.96-.58-.69-1.77-.69-.86 0-1.62.39-.75.39-1.43 1.06v10.02h-3.33v-13.85h2.04q.64 0 .85.61Zm14.97 4.72h6.29q0-.65-.18-1.22t-.55-1.01q-.36-.43-.92-.68-.56-.25-1.31-.25-1.44 0-2.27.83-.83.82-1.06 2.33Zm8.5 2.01h-8.57q.08 1.07.38 1.85.3.77.78 1.28.49.5 1.16.75.66.25 1.47.25.81 0 1.4-.18.59-.19 1.03-.42.44-.23.77-.42.33-.19.64-.19.42 0 .62.31l.96 1.21q-.56.65-1.24 1.09-.69.44-1.44.7-.75.27-1.53.37-.77.11-1.5.11-1.45 0-2.69-.48t-2.16-1.41q-.92-.94-1.44-2.33-.53-1.38-.53-3.2 0-1.42.46-2.67t1.32-2.17q.85-.93 2.09-1.47 1.23-.54 2.79-.54 1.31 0 2.41.42 1.11.42 1.91 1.22.79.81 1.24 1.97.46 1.17.46 2.67 0 .76-.17 1.02-.16.26-.62.26Zm6.23-6.5.2 1.56q.65-1.24 1.54-1.95t2.1-.71q.96 0 1.54.42l-.21 2.5q-.07.24-.2.34-.13.1-.34.1-.2 0-.6-.06-.4-.07-.78-.07-.55 0-.99.16-.43.16-.77.47-.35.3-.61.73t-.49.99v8.53h-3.34v-13.85h1.96q.51 0 .72.18.2.18.27.66Z"/></svg>